PathFileType	4	(X/Y/Z)	C:\Users\italobelli\Desktop\GitHub\PTbot_officialCBL\Personal_Results\SHRUG02_noisy2.trc
DataRate	CameraRate	NumFrames	NumMarkers	Units	OrigDataRate	OrigDataStartFrame	OrigNumFrames
112.250000	112.250000	34	9	m	112.250000	113	450
Frame#	Time		gu		centelbow		EpL		centpxt8		centijc7		ij		ts		aa		ai
			X1	Y1	Z1	X2	Y2	Z2	X3	Y3	Z3	X4	Y4	Z4	X5	Y5	Z5	X6	Y6	Z6	X7	Y7	Z7	X8	Y8	Z8	X9	Y9	Z9

113	0.99777	-0.079668	0.00045208	0.166	-0.10512	-0.24554	0.19615	-0.08416	-0.24038	0.2201	-0.046816	-0.15316	-0.008669	-0.046816	0.031938	-0.008669	0	0	0	-0.13153	0.049337	0.055174	-0.10107	0.047815	0.17046	-0.15654	-0.060905	0.065768
114	1.0067	-0.079668	0.00083882	0.166	-0.10511	-0.24507	0.19616	-0.084146	-0.23989	0.22012	-0.046816	-0.15316	-0.008669	-0.046816	0.031938	-0.008669	0	0	0	-0.1315	0.04954	0.055122	-0.10098	0.048347	0.17044	-0.15645	-0.060601	0.065827
115	1.0156	-0.079648	0.0012756	0.16598	-0.10507	-0.24454	0.19621	-0.084104	-0.23934	0.22017	-0.046816	-0.15316	-0.008669	-0.046816	0.031938	-0.008669	0	0	0	-0.13147	0.04974	0.055055	-0.10088	0.048903	0.17038	-0.15636	-0.060298	0.065911
116	1.0245	-0.079608	0.0017621	0.16594	-0.10501	-0.24394	0.19628	-0.084033	-0.23873	0.22024	-0.046816	-0.15316	-0.008669	-0.046816	0.031938	-0.008669	0	0	0	-0.13145	0.049938	0.054972	-0.10077	0.049483	0.1703	-0.15626	-0.059995	0.06602
117	1.0334	-0.079549	0.0022966	0.1659	-0.10492	-0.24329	0.19637	-0.083936	-0.23805	0.22033	-0.046816	-0.15316	-0.008669	-0.046816	0.031938	-0.008669	0	0	0	-0.13143	0.050133	0.054874	-0.10066	0.050085	0.17019	-0.15616	-0.059693	0.066154
118	1.0423	-0.079471	0.0028772	0.16583	-0.1048	-0.24259	0.1965	-0.083813	-0.23732	0.22045	-0.046816	-0.15316	-0.008669	-0.046816	0.031938	-0.008669	0	0	0	-0.13141	0.050326	0.054761	-0.10055	0.050708	0.17005	-0.15605	-0.059392	0.066312
119	1.0512	-0.079375	0.0035022	0.16576	-0.10467	-0.24183	0.19665	-0.083664	-0.23653	0.22059	-0.046816	-0.15316	-0.008669	-0.046816	0.031938	-0.008669	0	0	0	-0.13139	0.050516	0.054633	-0.10043	0.051353	0.16989	-0.15594	-0.059092	0.066492
120	1.0601	-0.079261	0.0041697	0.16567	-0.10451	-0.24102	0.19682	-0.083492	-0.23568	0.22074	-0.046816	-0.15316	-0.008669	-0.046816	0.031938	-0.008669	0	0	0	-0.13137	0.050705	0.054492	-0.10032	0.052017	0.1697	-0.15582	-0.058792	0.066694
121	1.069	-0.079131	0.0048779	0.16556	-0.10434	-0.24016	0.19702	-0.083297	-0.23478	0.22092	-0.046816	-0.15316	-0.008669	-0.046816	0.031938	-0.008669	0	0	0	-0.13136	0.05089	0.054338	-0.10019	0.0527	0.16948	-0.15569	-0.058494	0.066917
122	1.078	-0.078985	0.005625	0.16545	-0.10414	-0.23926	0.19724	-0.08308	-0.23384	0.22112	-0.046816	-0.15316	-0.008669	-0.046816	0.031938	-0.008669	0	0	0	-0.13135	0.051074	0.054172	-0.10007	0.053401	0.16925	-0.15556	-0.058197	0.06716
123	1.0869	-0.078824	0.0064092	0.16533	-0.10392	-0.23831	0.19748	-0.082843	-0.23284	0.22134	-0.046816	-0.15316	-0.008669	-0.046816	0.031938	-0.008669	0	0	0	-0.13134	0.051255	0.053993	-0.099942	0.054118	0.16899	-0.15543	-0.057901	0.067422
124	1.0958	-0.078648	0.0072286	0.16519	-0.10369	-0.23732	0.19775	-0.082585	-0.2318	0.22157	-0.046816	-0.15316	-0.008669	-0.046816	0.031938	-0.008669	0	0	0	-0.13133	0.051434	0.053803	-0.099812	0.054852	0.16872	-0.15529	-0.057607	0.067703
125	1.1047	-0.078458	0.0080815	0.16504	-0.10344	-0.23629	0.19803	-0.082309	-0.23072	0.22182	-0.046816	-0.15316	-0.008669	-0.046816	0.031938	-0.008669	0	0	0	-0.13132	0.05161	0.053602	-0.099679	0.055601	0.16842	-0.15515	-0.057314	0.068001
126	1.1136	-0.078255	0.008966	0.16489	-0.10317	-0.23522	0.19834	-0.082015	-0.22959	0.22209	-0.046816	-0.15316	-0.008669	-0.046816	0.031938	-0.008669	0	0	0	-0.13131	0.051784	0.053391	-0.099544	0.056364	0.1681	-0.155	-0.057022	0.068315
127	1.1225	-0.078039	0.0098804	0.16472	-0.10289	-0.23411	0.19866	-0.081705	-0.22843	0.22237	-0.046816	-0.15316	-0.008669	-0.046816	0.031938	-0.008669	0	0	0	-0.13131	0.051956	0.05317	-0.099407	0.057141	0.16777	-0.15485	-0.056731	0.068645
128	1.1314	-0.077812	0.010823	0.16455	-0.1026	-0.23298	0.199	-0.081379	-0.22723	0.22267	-0.046816	-0.15316	-0.008669	-0.046816	0.031938	-0.008669	0	0	0	-0.1313	0.052126	0.05294	-0.099268	0.057929	0.16742	-0.1547	-0.056442	0.06899
129	1.1403	-0.077573	0.011791	0.16437	-0.10229	-0.23181	0.19935	-0.081039	-0.226	0.22298	-0.046816	-0.15316	-0.008669	-0.046816	0.031938	-0.008669	0	0	0	-0.1313	0.052293	0.052701	-0.099127	0.058729	0.16706	-0.15455	-0.056155	0.069349
130	1.1492	-0.077323	0.012784	0.16418	-0.10197	-0.23061	0.19972	-0.080685	-0.22474	0.22331	-0.046816	-0.15316	-0.008669	-0.046816	0.031938	-0.008669	0	0	0	-0.1313	0.052458	0.052454	-0.098984	0.05954	0.16668	-0.15439	-0.055869	0.069721
131	1.1581	-0.077064	0.0138	0.16399	-0.10163	-0.22939	0.20011	-0.080318	-0.22345	0.22364	-0.046816	-0.15316	-0.008669	-0.046816	0.031938	-0.008669	0	0	0	-0.1313	0.052621	0.0522	-0.09884	0.06036	0.16628	-0.15423	-0.055585	0.070105
132	1.167	-0.076795	0.014836	0.16378	-0.10129	-0.22814	0.20051	-0.07994	-0.22213	0.22399	-0.046816	-0.15316	-0.008669	-0.046816	0.031938	-0.008669	0	0	0	-0.1313	0.052781	0.051939	-0.098694	0.061188	0.16588	-0.15406	-0.055303	0.0705
133	1.1759	-0.076518	0.015891	0.16358	-0.10094	-0.22686	0.20093	-0.079552	-0.22078	0.22435	-0.046816	-0.15316	-0.008669	-0.046816	0.031938	-0.008669	0	0	0	-0.1313	0.05294	0.051672	-0.098546	0.062024	0.16546	-0.1539	-0.055022	0.070906
134	1.1849	-0.076233	0.016964	0.16337	-0.10058	-0.22557	0.20135	-0.079154	-0.21942	0.22473	-0.046816	-0.15316	-0.008669	-0.046816	0.031938	-0.008669	0	0	0	-0.13131	0.053096	0.051399	-0.098397	0.062867	0.16503	-0.15373	-0.054743	0.071321
135	1.1938	-0.075941	0.018051	0.16315	-0.10021	-0.22426	0.20179	-0.078748	-0.21804	0.22511	-0.046816	-0.15316	-0.008669	-0.046816	0.031938	-0.008669	0	0	0	-0.13131	0.05325	0.051121	-0.098247	0.063716	0.16459	-0.15356	-0.054467	0.071745
136	1.2027	-0.075642	0.019153	0.16293	-0.099836	-0.22294	0.20224	-0.078335	-0.21664	0.2255	-0.046816	-0.15316	-0.008669	-0.046816	0.031938	-0.008669	0	0	0	-0.13131	0.053402	0.050838	-0.098096	0.06457	0.16414	-0.15339	-0.054192	0.072177
137	1.2116	-0.075337	0.020266	0.16271	-0.099456	-0.2216	0.2027	-0.077915	-0.21522	0.2259	-0.046816	-0.15316	-0.008669	-0.046816	0.031938	-0.008669	0	0	0	-0.13132	0.053551	0.050551	-0.097944	0.065427	0.16369	-0.15321	-0.053919	0.072615
138	1.2205	-0.075028	0.021388	0.16248	-0.099071	-0.22024	0.20316	-0.07749	-0.21379	0.2263	-0.046816	-0.15316	-0.008669	-0.046816	0.031938	-0.008669	0	0	0	-0.13132	0.053699	0.050261	-0.097792	0.066288	0.16323	-0.15304	-0.053649	0.07306
139	1.2294	-0.074713	0.022519	0.16225	-0.098682	-0.21888	0.20364	-0.077061	-0.21235	0.22672	-0.046816	-0.15316	-0.008669	-0.046816	0.031938	-0.008669	0	0	0	-0.13133	0.053844	0.049967	-0.097639	0.06715	0.16276	-0.15286	-0.053381	0.07351
140	1.2383	-0.074395	0.023656	0.16202	-0.09829	-0.21752	0.20412	-0.076629	-0.21091	0.22714	-0.046816	-0.15316	-0.008669	-0.046816	0.031938	-0.008669	0	0	0	-0.13134	0.053987	0.049671	-0.097485	0.068014	0.16229	-0.15269	-0.053115	0.073963
141	1.2472	-0.074074	0.024798	0.16179	-0.097897	-0.21614	0.20461	-0.076194	-0.20946	0.22756	-0.046816	-0.15316	-0.008669	-0.046816	0.031938	-0.008669	0	0	0	-0.13134	0.054128	0.049374	-0.097331	0.068878	0.16181	-0.15251	-0.052851	0.074421
142	1.2561	-0.07375	0.025942	0.16156	-0.097502	-0.21477	0.2051	-0.075759	-0.208	0.22799	-0.046816	-0.15316	-0.008669	-0.046816	0.031938	-0.008669	0	0	0	-0.13135	0.054267	0.049075	-0.097176	0.069741	0.16133	-0.15233	-0.05259	0.07488
143	1.265	-0.073425	0.027087	0.16133	-0.097107	-0.21339	0.2056	-0.075323	-0.20655	0.22842	-0.046816	-0.15316	-0.008669	-0.046816	0.031938	-0.008669	0	0	0	-0.13136	0.054404	0.048776	-0.097022	0.070602	0.16085	-0.15216	-0.052331	0.075342
144	1.2739	-0.073098	0.028231	0.1611	-0.096714	-0.21201	0.2061	-0.074889	-0.20509	0.22886	-0.046816	-0.15316	-0.008669	-0.046816	0.031938	-0.008669	0	0	0	-0.13136	0.054539	0.048476	-0.096868	0.071461	0.16037	-0.15198	-0.052075	0.075804
145	1.2829	-0.072771	0.029372	0.16087	-0.096322	-0.21064	0.20661	-0.074456	-0.20364	0.2293	-0.046816	-0.15316	-0.008669	-0.046816	0.031938	-0.008669	0	0	0	-0.13137	0.054671	0.048177	-0.096714	0.072317	0.15989	-0.1518	-0.051821	0.076266
146	1.2918	-0.072444	0.030509	0.16065	-0.095933	-0.20928	0.20711	-0.074027	-0.2022	0.22974	-0.046816	-0.15316	-0.008669	-0.046816	0.031938	-0.008669	0	0	0	-0.13138	0.054802	0.047879	-0.09656	0.073168	0.15941	-0.15162	-0.05157	0.076727
